<mxfile host="app.diagrams.net" modified="2021-09-30T12:57:41.345Z" agent="5.0 (Macintosh; Intel Mac OS X 10_15_7) AppleWebKit/537.36 (KHTML, like Gecko) Chrome/93.0.4577.82 Safari/537.36" etag="5s_CdolLB59-ZaluTvf9" version="14.4.3" type="github">
  <diagram id="ebvH97lGsPnApEIWCI86" name="Page-1">
    <mxGraphModel dx="1421" dy="726" grid="1" gridSize="10" guides="1" tooltips="1" connect="1" arrows="1" fold="1" page="1" pageScale="1" pageWidth="1654" pageHeight="1169" math="0" shadow="0">
      <root>
        <mxCell id="0" />
        <mxCell id="1" parent="0" />
        <mxCell id="uprv_qQI1ZrDwKQ4Ydge-5" style="edgeStyle=orthogonalEdgeStyle;rounded=0;orthogonalLoop=1;jettySize=auto;html=1;entryX=0.448;entryY=0;entryDx=0;entryDy=0;entryPerimeter=0;" edge="1" parent="1" source="uprv_qQI1ZrDwKQ4Ydge-1" target="uprv_qQI1ZrDwKQ4Ydge-2">
          <mxGeometry relative="1" as="geometry">
            <Array as="points">
              <mxPoint x="639" y="182" />
              <mxPoint x="392" y="182" />
            </Array>
          </mxGeometry>
        </mxCell>
        <mxCell id="uprv_qQI1ZrDwKQ4Ydge-6" style="edgeStyle=orthogonalEdgeStyle;rounded=0;orthogonalLoop=1;jettySize=auto;html=1;" edge="1" parent="1" source="uprv_qQI1ZrDwKQ4Ydge-1" target="uprv_qQI1ZrDwKQ4Ydge-4">
          <mxGeometry relative="1" as="geometry">
            <Array as="points">
              <mxPoint x="639" y="182" />
              <mxPoint x="886" y="182" />
            </Array>
          </mxGeometry>
        </mxCell>
        <mxCell id="uprv_qQI1ZrDwKQ4Ydge-7" style="edgeStyle=orthogonalEdgeStyle;rounded=0;orthogonalLoop=1;jettySize=auto;html=1;" edge="1" parent="1" source="uprv_qQI1ZrDwKQ4Ydge-1" target="uprv_qQI1ZrDwKQ4Ydge-3">
          <mxGeometry relative="1" as="geometry" />
        </mxCell>
        <mxCell id="uprv_qQI1ZrDwKQ4Ydge-1" value="Kunde&lt;br&gt;" style="outlineConnect=0;fontColor=#232F3E;gradientColor=none;fillColor=#232F3E;strokeColor=none;dashed=0;verticalLabelPosition=bottom;verticalAlign=top;align=center;html=1;fontSize=12;fontStyle=0;aspect=fixed;pointerEvents=1;shape=mxgraph.aws4.user;" vertex="1" parent="1">
          <mxGeometry x="600" y="62" width="78" height="78" as="geometry" />
        </mxCell>
        <mxCell id="uprv_qQI1ZrDwKQ4Ydge-2" value="www.cooking.de" style="aspect=fixed;html=1;points=[];align=center;image;fontSize=12;image=img/lib/mscae/CustomDomain.svg;" vertex="1" parent="1">
          <mxGeometry x="360" y="202" width="71.43" height="60" as="geometry" />
        </mxCell>
        <mxCell id="uprv_qQI1ZrDwKQ4Ydge-25" style="edgeStyle=orthogonalEdgeStyle;rounded=0;orthogonalLoop=1;jettySize=auto;html=1;" edge="1" parent="1" source="uprv_qQI1ZrDwKQ4Ydge-3" target="uprv_qQI1ZrDwKQ4Ydge-18">
          <mxGeometry relative="1" as="geometry">
            <Array as="points">
              <mxPoint x="639" y="312" />
              <mxPoint x="563" y="312" />
            </Array>
          </mxGeometry>
        </mxCell>
        <mxCell id="uprv_qQI1ZrDwKQ4Ydge-28" style="edgeStyle=orthogonalEdgeStyle;rounded=0;orthogonalLoop=1;jettySize=auto;html=1;" edge="1" parent="1" source="uprv_qQI1ZrDwKQ4Ydge-3" target="uprv_qQI1ZrDwKQ4Ydge-16">
          <mxGeometry relative="1" as="geometry">
            <Array as="points">
              <mxPoint x="639" y="312" />
              <mxPoint x="783" y="312" />
            </Array>
          </mxGeometry>
        </mxCell>
        <mxCell id="uprv_qQI1ZrDwKQ4Ydge-49" style="edgeStyle=orthogonalEdgeStyle;rounded=0;orthogonalLoop=1;jettySize=auto;html=1;entryX=0.515;entryY=-0.019;entryDx=0;entryDy=0;entryPerimeter=0;" edge="1" parent="1" source="uprv_qQI1ZrDwKQ4Ydge-3" target="uprv_qQI1ZrDwKQ4Ydge-14">
          <mxGeometry relative="1" as="geometry">
            <Array as="points">
              <mxPoint x="639" y="312" />
              <mxPoint x="456" y="312" />
            </Array>
          </mxGeometry>
        </mxCell>
        <mxCell id="uprv_qQI1ZrDwKQ4Ydge-50" style="edgeStyle=orthogonalEdgeStyle;rounded=0;orthogonalLoop=1;jettySize=auto;html=1;" edge="1" parent="1" source="uprv_qQI1ZrDwKQ4Ydge-3" target="uprv_qQI1ZrDwKQ4Ydge-13">
          <mxGeometry relative="1" as="geometry">
            <Array as="points">
              <mxPoint x="639" y="312" />
              <mxPoint x="673" y="312" />
            </Array>
          </mxGeometry>
        </mxCell>
        <mxCell id="uprv_qQI1ZrDwKQ4Ydge-3" value="www.zahnarzt.de" style="aspect=fixed;html=1;points=[];align=center;image;fontSize=12;image=img/lib/mscae/CustomDomain.svg;" vertex="1" parent="1">
          <mxGeometry x="603.2800000000001" y="202" width="71.43" height="60" as="geometry" />
        </mxCell>
        <mxCell id="uprv_qQI1ZrDwKQ4Ydge-4" value="www.cafe.de" style="aspect=fixed;html=1;points=[];align=center;image;fontSize=12;image=img/lib/mscae/CustomDomain.svg;" vertex="1" parent="1">
          <mxGeometry x="850" y="202" width="71.43" height="60" as="geometry" />
        </mxCell>
        <mxCell id="uprv_qQI1ZrDwKQ4Ydge-54" style="edgeStyle=orthogonalEdgeStyle;rounded=0;orthogonalLoop=1;jettySize=auto;html=1;" edge="1" parent="1" source="uprv_qQI1ZrDwKQ4Ydge-12">
          <mxGeometry relative="1" as="geometry">
            <mxPoint x="280" y="232" as="targetPoint" />
          </mxGeometry>
        </mxCell>
        <mxCell id="uprv_qQI1ZrDwKQ4Ydge-12" value="&lt;b&gt;mhp&lt;/b&gt;&lt;br&gt;new column?&lt;br&gt;domain" style="rounded=0;whiteSpace=wrap;html=1;" vertex="1" parent="1">
          <mxGeometry x="80" y="202" width="160" height="60" as="geometry" />
        </mxCell>
        <mxCell id="uprv_qQI1ZrDwKQ4Ydge-13" value="Ã¼ber uns" style="aspect=fixed;html=1;points=[];align=center;image;fontSize=12;image=img/lib/azure2/general/Blob_Page.svg;" vertex="1" parent="1">
          <mxGeometry x="640" y="342" width="65" height="52" as="geometry" />
        </mxCell>
        <mxCell id="uprv_qQI1ZrDwKQ4Ydge-14" value="Startseite" style="aspect=fixed;html=1;points=[];align=center;image;fontSize=12;image=img/lib/azure2/general/Blob_Page.svg;" vertex="1" parent="1">
          <mxGeometry x="422.5" y="342" width="65" height="52" as="geometry" />
        </mxCell>
        <mxCell id="uprv_qQI1ZrDwKQ4Ydge-16" value="Kontakt" style="aspect=fixed;html=1;points=[];align=center;image;fontSize=12;image=img/lib/azure2/general/Blob_Page.svg;" vertex="1" parent="1">
          <mxGeometry x="750" y="342" width="65" height="52" as="geometry" />
        </mxCell>
        <mxCell id="uprv_qQI1ZrDwKQ4Ydge-39" style="edgeStyle=orthogonalEdgeStyle;rounded=0;orthogonalLoop=1;jettySize=auto;html=1;entryX=0.5;entryY=0;entryDx=0;entryDy=0;" edge="1" parent="1" source="uprv_qQI1ZrDwKQ4Ydge-18" target="uprv_qQI1ZrDwKQ4Ydge-41">
          <mxGeometry relative="1" as="geometry">
            <mxPoint x="562.4799999999996" y="482" as="targetPoint" />
          </mxGeometry>
        </mxCell>
        <mxCell id="uprv_qQI1ZrDwKQ4Ydge-44" style="edgeStyle=orthogonalEdgeStyle;rounded=0;orthogonalLoop=1;jettySize=auto;html=1;entryX=0.5;entryY=0;entryDx=0;entryDy=0;" edge="1" parent="1" source="uprv_qQI1ZrDwKQ4Ydge-18" target="uprv_qQI1ZrDwKQ4Ydge-38">
          <mxGeometry relative="1" as="geometry">
            <Array as="points">
              <mxPoint x="563" y="442" />
              <mxPoint x="460" y="442" />
            </Array>
          </mxGeometry>
        </mxCell>
        <mxCell id="uprv_qQI1ZrDwKQ4Ydge-45" style="edgeStyle=orthogonalEdgeStyle;rounded=0;orthogonalLoop=1;jettySize=auto;html=1;entryX=0.5;entryY=0;entryDx=0;entryDy=0;" edge="1" parent="1" source="uprv_qQI1ZrDwKQ4Ydge-18" target="uprv_qQI1ZrDwKQ4Ydge-42">
          <mxGeometry relative="1" as="geometry">
            <Array as="points">
              <mxPoint x="563" y="442" />
              <mxPoint x="660" y="442" />
            </Array>
          </mxGeometry>
        </mxCell>
        <mxCell id="uprv_qQI1ZrDwKQ4Ydge-18" value="Leistungen" style="aspect=fixed;html=1;points=[];align=center;image;fontSize=12;image=img/lib/azure2/general/Blob_Page.svg;" vertex="1" parent="1">
          <mxGeometry x="530" y="342" width="65" height="52" as="geometry" />
        </mxCell>
        <mxCell id="uprv_qQI1ZrDwKQ4Ydge-55" style="edgeStyle=orthogonalEdgeStyle;rounded=0;orthogonalLoop=1;jettySize=auto;html=1;" edge="1" parent="1" source="uprv_qQI1ZrDwKQ4Ydge-29">
          <mxGeometry relative="1" as="geometry">
            <mxPoint x="280" y="368" as="targetPoint" />
          </mxGeometry>
        </mxCell>
        <mxCell id="uprv_qQI1ZrDwKQ4Ydge-29" value="&lt;b&gt;mhpSeite&lt;/b&gt;" style="rounded=0;whiteSpace=wrap;html=1;" vertex="1" parent="1">
          <mxGeometry x="80" y="338" width="160" height="60" as="geometry" />
        </mxCell>
        <mxCell id="uprv_qQI1ZrDwKQ4Ydge-38" value="text" style="rounded=0;whiteSpace=wrap;html=1;" vertex="1" parent="1">
          <mxGeometry x="422.5" y="492" width="80" height="40" as="geometry" />
        </mxCell>
        <mxCell id="uprv_qQI1ZrDwKQ4Ydge-41" value="text-bild" style="rounded=0;whiteSpace=wrap;html=1;" vertex="1" parent="1">
          <mxGeometry x="522.5" y="492" width="80" height="40" as="geometry" />
        </mxCell>
        <mxCell id="uprv_qQI1ZrDwKQ4Ydge-42" value="gallary" style="rounded=0;whiteSpace=wrap;html=1;" vertex="1" parent="1">
          <mxGeometry x="622.5" y="492" width="80" height="40" as="geometry" />
        </mxCell>
        <mxCell id="uprv_qQI1ZrDwKQ4Ydge-53" value="" style="endArrow=none;html=1;" edge="1" parent="1">
          <mxGeometry width="50" height="50" relative="1" as="geometry">
            <mxPoint x="280" y="600" as="sourcePoint" />
            <mxPoint x="280" y="50" as="targetPoint" />
          </mxGeometry>
        </mxCell>
        <mxCell id="uprv_qQI1ZrDwKQ4Ydge-57" style="edgeStyle=orthogonalEdgeStyle;rounded=0;orthogonalLoop=1;jettySize=auto;html=1;" edge="1" parent="1" source="uprv_qQI1ZrDwKQ4Ydge-56">
          <mxGeometry relative="1" as="geometry">
            <mxPoint x="280" y="512" as="targetPoint" />
          </mxGeometry>
        </mxCell>
        <mxCell id="uprv_qQI1ZrDwKQ4Ydge-56" value="&lt;b&gt;mhpElement&lt;/b&gt;" style="rounded=0;whiteSpace=wrap;html=1;" vertex="1" parent="1">
          <mxGeometry x="80" y="482" width="160" height="60" as="geometry" />
        </mxCell>
        <mxCell id="uprv_qQI1ZrDwKQ4Ydge-59" value="DB" style="shape=cylinder3;whiteSpace=wrap;html=1;boundedLbl=1;backgroundOutline=1;size=15;" vertex="1" parent="1">
          <mxGeometry x="120" y="62" width="60" height="80" as="geometry" />
        </mxCell>
        <mxCell id="uprv_qQI1ZrDwKQ4Ydge-60" value="&lt;b&gt;&lt;font style=&quot;font-size: 18px&quot;&gt;New mhpElementTyp&lt;/font&gt;&lt;/b&gt;" style="text;html=1;strokeColor=none;fillColor=none;align=center;verticalAlign=middle;whiteSpace=wrap;rounded=0;" vertex="1" parent="1">
          <mxGeometry x="435" y="690" width="255" height="20" as="geometry" />
        </mxCell>
        <mxCell id="uprv_qQI1ZrDwKQ4Ydge-61" value="header-text" style="rounded=0;whiteSpace=wrap;html=1;" vertex="1" parent="1">
          <mxGeometry x="257.5" y="770" width="120" height="60" as="geometry" />
        </mxCell>
        <mxCell id="uprv_qQI1ZrDwKQ4Ydge-62" value="header-logo" style="rounded=0;whiteSpace=wrap;html=1;" vertex="1" parent="1">
          <mxGeometry x="423.21" y="770" width="120" height="60" as="geometry" />
        </mxCell>
        <mxCell id="uprv_qQI1ZrDwKQ4Ydge-63" value="header-bild" style="rounded=0;whiteSpace=wrap;html=1;" vertex="1" parent="1">
          <mxGeometry x="590" y="770" width="120" height="60" as="geometry" />
        </mxCell>
        <mxCell id="uprv_qQI1ZrDwKQ4Ydge-64" value="header-nav" style="rounded=0;whiteSpace=wrap;html=1;" vertex="1" parent="1">
          <mxGeometry x="747.5" y="770" width="120" height="60" as="geometry" />
        </mxCell>
        <mxCell id="uprv_qQI1ZrDwKQ4Ydge-65" value="footer-address" style="rounded=0;whiteSpace=wrap;html=1;" vertex="1" parent="1">
          <mxGeometry x="257.5" y="950" width="120" height="60" as="geometry" />
        </mxCell>
        <mxCell id="uprv_qQI1ZrDwKQ4Ydge-66" value="footer-map" style="rounded=0;whiteSpace=wrap;html=1;" vertex="1" parent="1">
          <mxGeometry x="423.21000000000004" y="950" width="120" height="60" as="geometry" />
        </mxCell>
        <mxCell id="uprv_qQI1ZrDwKQ4Ydge-67" value="opening-hours" style="rounded=0;whiteSpace=wrap;html=1;" vertex="1" parent="1">
          <mxGeometry x="257.5" y="860" width="120" height="60" as="geometry" />
        </mxCell>
        <mxCell id="uprv_qQI1ZrDwKQ4Ydge-68" value="reviews" style="rounded=0;whiteSpace=wrap;html=1;" vertex="1" parent="1">
          <mxGeometry x="423.21" y="860" width="120" height="60" as="geometry" />
        </mxCell>
        <mxCell id="uprv_qQI1ZrDwKQ4Ydge-69" value="footer-nav" style="rounded=0;whiteSpace=wrap;html=1;" vertex="1" parent="1">
          <mxGeometry x="592" y="950" width="120" height="60" as="geometry" />
        </mxCell>
      </root>
    </mxGraphModel>
  </diagram>
</mxfile>
